<svg xmlns="http://www.w3.org/2000/svg" viewBox="0 0 146.2 146.2">
  <defs>
    <style>
      .a,
      .d,
      .e,
      .h {
        fill: none;
      }

      .a {
        opacity: 0.07;
      }

      .b {
        fill: #fdec3c;
      }

      .b,
      .c,
      .e {
        stroke: #003290;
      }

      .b,
      .c,
      .d,
      .e,
      .h {
        stroke-linecap: round;
        stroke-linejoin: round;
        stroke-width: 2.284px;
      }

      .c {
        fill: #fff;
      }

      .d {
        stroke: #42cb63;
      }

      .f {
        fill: #d6e9ff;
      }

      .g {
        fill: #ffc5dd;
      }

      .h {
        stroke: #2c8bf6;
      }
    </style>
  </defs>
  <rect class="a" width="146.2" height="146.2" />
  <path class="b" d="M105.225,78.589h6.764l-7.609,12.68,5.074,6.763h20.287l-10.99-19.443h6.764L115.37,61.681Z" />
  <path class="c"
    d="M115.37,98.032h-5.916l-5.074-6.763,7.609-12.68h-6.764L115.37,61.681l10.145,16.908h-6.764l10.99,19.443Zm0,0v9.3" />
  <path class="d" d="M131.683,87.923l3.65,6.821a6.852,6.852,0,0,1-6.042,10.087h-.4" />
  <path class="c"
    d="M75.507,51.536c-.236-3.215-2.424-5.271-4.658-6.556a13.5,13.5,0,0,0-4.835-1.861l-.176-.036c1.69-8.455-4.4-17.246-15.219-18.6s-15.78,3.945-16.906,6.763a10.4,10.4,0,0,0-11.836,0c-4.735,3.381-3.1,9.3-1.69,11.836-2.819,1.127-8.455,5.579-8.455,14.371,0,16.908,23.671,23.389,35.506,24.517h1.691C73.4,82.017,76.006,58.314,75.507,51.536Z" />
  <path class="e" d="M47.238,100.551v-33.8m0-18.6v8.454m0,0,5.072-5.072m-5.072,5.072V66.753m0,0L35.4,54.917" />
  <path class="f"
    d="M73.1,81.97c0,20.29-14.652,38.888-21.98,45.651H17.3L69.287,48.859a4.57,4.57,0,0,1,7.628,0L128.9,127.621H95.08C87.754,120.858,73.1,102.26,73.1,81.97Z" />
  <path class="e"
    d="M5.469,127.621H51.12c7.328-6.763,21.98-25.362,21.98-45.651,0,20.289,14.654,38.888,21.98,45.651m0,0H84.935m10.145,0H128.9m11.835,0H128.9m0,0L76.915,48.859a4.57,4.57,0,0,0-7.628,0L17.3,127.621v-6.763M128.9,127.621v-6.763" />
  <path class="g" d="M73.1,21.7V35.222l15.219-6.763Z" />
  <path class="e" d="M73.1,45.366V21.7m0-1.69V21.7m0,0,15.219,6.764L73.1,35.222" />
  <path class="h" d="M128.9,133.481H39.332" />
  <path class="b"
    d="M122.132,36.318a11.836,11.836,0,0,0,1.311-23.6,11.84,11.84,0,0,1-11.075,18.455A11.824,11.824,0,0,0,122.132,36.318Z" />
  <path class="d" d="M70.6,29.945c-2.654-6.557-9.088-11.851-18.168-12.986-8.11-1.014-13.606.939-17.026,3.434" />
</svg>
