<svg xmlns="http://www.w3.org/2000/svg" viewBox="0 0 146.2 146.2"><defs><style>.a,.f,.g,.h,.i{fill:none;}.a{opacity:0.07;}.b,.c{fill:#d6e9ff;}.c,.e{fill-rule:evenodd;}.d,.e{fill:#fdec3c;}.f{stroke:#003290;}.f,.g,.h,.i{stroke-linecap:round;stroke-linejoin:round;stroke-width:2.284px;}.g{stroke:#42cb63;}.h{stroke:#ffc5dd;}.i{stroke:#2c8bf6;}</style></defs><rect class="a" width="146.2" height="146.2"/><path class="b" d="M77.926,51.9H52.99V75.753H93.1V51.9Z"/><path class="c" d="M52.99,75.753v8.131a3.8,3.8,0,0,1-3.253,3.756,3.708,3.708,0,0,1-.542.039,3.8,3.8,0,0,1-3.794-3.8V51.9H36.727V62.743a12.076,12.076,0,0,0,0,1.9v63.145a8.673,8.673,0,0,0,8.674,8.674h56.376a8.671,8.671,0,0,0,8.671-8.674V51.9h-9.756V83.884a3.794,3.794,0,0,1-3.251,3.756,3.742,3.742,0,0,1-.543.039,3.8,3.8,0,0,1-3.8-3.8V75.753"/><path class="d" d="M119.122,43.229V38.892a8.671,8.671,0,0,0-8.671-8.673h-9.759V51.9h9.756A8.673,8.673,0,0,0,119.122,43.229Z"/><path class="d" d="M70.337,51.9H93.1V30.219H52.99V51.9Z"/><path class="d" d="M28.056,38.892v4.337A8.671,8.671,0,0,0,36.727,51.9H45.4V30.219H36.727A8.673,8.673,0,0,0,28.056,38.892Z"/><path class="e" d="M36.727,62.743v1.9A12.076,12.076,0,0,1,36.727,62.743Z"/><path class="f" d="M64.916,114.782H82.262"/><path class="b" d="M93.1,75.753V51.9H52.99V75.753"/><path class="b" d="M36.727,51.9V64.647c.29,3.8,2.33,8.982,8.674,10.6V51.9Z"/><path class="b" d="M110.448,62.743V51.9h-9.756V75.345C105.092,74.282,110.448,70.924,110.448,62.743Z"/><path class="b" d="M77.926,75.753H52.99v8.131a3.8,3.8,0,0,1-3.253,3.756v20.637q0-6.5,6.506-6.5H89.85c2.351-.012,7.591,0,7.591,6.5V87.64a3.742,3.742,0,0,1-.543.039,3.8,3.8,0,0,1-3.8-3.8V75.753Z"/><path class="b" d="M36.727,127.792a8.673,8.673,0,0,0,8.674,8.674h4.336V87.64a3.708,3.708,0,0,1-.542.039,3.8,3.8,0,0,1-3.794-3.8V75.248c-6.344-1.619-8.384-6.8-8.674-10.6v63.145Z"/><path class="b" d="M49.737,136.466h47.7V108.277c0-6.5-5.24-6.517-7.591-6.5H56.243q-6.5,0-6.506,6.5v28.189Z"/><path class="b" d="M97.441,136.466h4.336a8.671,8.671,0,0,0,8.671-8.674h0V62.743c0,8.181-5.356,11.539-9.756,12.6v8.539a3.794,3.794,0,0,1-3.251,3.756v48.826Z"/><path class="f" d="M36.727,51.9V62.743m0-10.841a8.671,8.671,0,0,1-8.671-8.673V38.892a8.673,8.673,0,0,1,8.671-8.673m0,21.683H45.4m65.047,0V62.743m0-10.841a8.673,8.673,0,0,0,8.674-8.673V38.892a8.671,8.671,0,0,0-8.671-8.673m0,21.683h-9.756M36.727,62.743v1.9m0-1.9a12.076,12.076,0,0,0,0,1.9m73.721-1.9V90.931m0-28.188c0,8.181-5.356,11.539-9.756,12.6M49.737,136.466H45.4a8.673,8.673,0,0,1-8.674-8.674h0m13.01,8.674h47.7m-47.7,0V108.277m47.7,28.189h4.336a8.671,8.671,0,0,0,8.671-8.674h0m-13.007,8.674v-8.674m0,0V87.64m0,40.152V108.277M36.727,127.792V90.931m0,36.861h-6.5a8.673,8.673,0,0,1-8.673-8.673V106.108A15.178,15.178,0,0,1,36.727,90.931m0,0V64.647m73.721,26.284h0a15.179,15.179,0,0,1,15.18,15.179v12.544a9.138,9.138,0,0,1-9.137,9.138h-6.043m0-36.861v36.861M93.1,75.753H52.99M36.727,30.219H58.41m-21.683,0H45.4m65.05,0H88.767m21.684,0h-9.759m-42.282,0V23.714a8.674,8.674,0,0,1,8.674-8.673h13.01a8.673,8.673,0,0,1,8.673,8.673v6.505m-30.357,0H88.767m-30.357,0H52.99m35.777,0H93.1m-47.7,0H52.99m-7.589,0V51.9M52.99,30.219V51.9m-7.589,0V75.248M52.99,51.9V75.753m0-23.851H93.1m-40.113,0H93.1M49.737,87.64a3.708,3.708,0,0,1-.542.039,3.8,3.8,0,0,1-3.794-3.8V75.248M49.737,87.64a3.8,3.8,0,0,0,3.253-3.756V75.753M49.737,87.64v20.637M45.4,75.248c-6.344-1.619-8.384-6.8-8.674-10.6M93.1,30.219h7.589m-7.589,0V51.9m7.589-21.683V51.9m-7.589,0V75.753M100.692,51.9V75.345m0,0v8.539a3.794,3.794,0,0,1-3.251,3.756M93.1,75.753v8.131a3.8,3.8,0,0,0,3.8,3.8,3.742,3.742,0,0,0,.543-.039m0,0v20.637m-47.7,0q0-6.5,6.506-6.5m0,0H89.85m-33.607,0H89.85m0,0c2.351-.012,7.591,0,7.591,6.5"/><path class="g" d="M76.384,9.734H62.952a9.138,9.138,0,0,0-9.138,9.138v1.476"/><path class="h" d="M114.786,132.717h6.033a9.135,9.135,0,0,0,9.138-9.136V122.1"/><path class="i" d="M16.243,107.7v15.881a9.137,9.137,0,0,0,9.138,9.136h1.475"/></svg>
