<svg width="16" height="16" viewBox="0 0 16 16" fill="none" xmlns="http://www.w3.org/2000/svg">
<g clip-path="url(#clip0_41_4532)">
<path d="M14.57 4.11999C14.8836 3.52729 15.0297 2.86034 14.9927 2.19083C14.9557 1.52131 14.737 0.874533 14.36 0.31999C14.2903 0.220406 14.1975 0.139248 14.0895 0.083504C13.9815 0.0277598 13.8615 -0.000900763 13.74 -1.03888e-05C13.5901 -0.000227528 13.4436 0.0451072 13.32 0.12999C13.1703 0.243656 13.068 0.408789 13.0329 0.593483C12.9978 0.778178 13.0324 0.969324 13.13 1.12999C13.3246 1.42149 13.4445 1.75632 13.4794 2.10505C13.5143 2.45378 13.463 2.80573 13.33 3.12999C12.4733 2.62681 11.483 2.39826 10.4925 2.47515C9.50194 2.55203 8.55876 2.93064 7.79 3.55999C7.68797 3.63015 7.60704 3.72684 7.55593 3.83963C7.50482 3.95242 7.48548 4.07702 7.5 4.19999C7.51712 4.38438 7.60276 4.55566 7.74 4.67999V4.67999L7.26 5.55999C6.98 6.05999 6.72 6.55999 6.46 7.17999C5.53 9.17999 4.57 11.34 2.33 11.34C1.74232 11.3786 1.19133 11.6393 0.788776 12.0692C0.386221 12.4991 0.162231 13.066 0.162231 13.655C0.162231 14.2439 0.386221 14.8108 0.788776 15.2407C1.19133 15.6706 1.74232 15.9313 2.33 15.97C4.36865 15.9874 6.38959 15.5904 8.27017 14.8031C10.1507 14.0158 11.8518 12.8546 13.27 11.39L13.98 10.68C14.1358 10.8384 14.3398 10.9404 14.56 10.97C14.6808 10.9631 14.7984 10.929 14.9041 10.8701C15.0097 10.8112 15.1006 10.7291 15.17 10.63C15.8121 9.62984 16.1035 8.44466 15.9986 7.26079C15.8936 6.07692 15.3981 4.96153 14.59 4.08999L14.57 4.11999ZM2.29 14.48C2.07782 14.48 1.87434 14.3957 1.72431 14.2457C1.57428 14.0956 1.49 13.8922 1.49 13.68C1.49 13.4678 1.57428 13.2643 1.72431 13.1143C1.87434 12.9643 2.07782 12.88 2.29 12.88C5.49 12.88 6.76 10.09 7.78 7.87999C7.95 7.51999 8.11 7.16999 8.27 6.87999C8.49534 6.42004 8.84087 6.02959 9.27 5.74999V8.50999C9.27 8.7089 9.34902 8.89967 9.48967 9.04032C9.63032 9.18097 9.82109 9.25999 10.02 9.25999H12.88C12.7238 9.67758 12.4741 10.0539 12.15 10.36C10.8674 11.6737 9.3333 12.7155 7.63926 13.4234C5.94522 14.1312 4.12595 14.4906 2.29 14.48V14.48Z" fill="#003290"/>
<path d="M2.29001 14.48C2.07783 14.48 1.87435 14.3957 1.72432 14.2457C1.57429 14.0957 1.49001 13.8922 1.49001 13.68C1.49001 13.4678 1.57429 13.2643 1.72432 13.1143C1.87435 12.9643 2.07783 12.88 2.29001 12.88C5.49001 12.88 6.76001 10.09 7.78001 7.88C7.95001 7.52 8.11001 7.17 8.27001 6.88C8.49535 6.42005 8.84088 6.0296 9.27001 5.75V8.51C9.27001 8.70891 9.34902 8.89968 9.48968 9.04033C9.63033 9.18098 9.82109 9.26 10.02 9.26H12.88C12.7238 9.67759 12.4741 10.0539 12.15 10.36C10.8674 11.6737 9.33331 12.7155 7.63927 13.4234C5.94523 14.1312 4.12596 14.4906 2.29001 14.48V14.48Z" fill="#FCC5DD"/>
</g>
<defs>
<clipPath id="clip0_41_4532">
<rect width="16" height="16" fill="white"/>
</clipPath>
</defs>
</svg>
