<svg xmlns="http://www.w3.org/2000/svg" viewBox="0 0 146.2 146.2">
  <defs>
    <style>
      .a,
      .b,
      .d,
      .f,
      .g {
        fill: none;
      }

      .a {
        opacity: 0.07;
      }

      .b,
      .c,
      .e {
        stroke: #003290;
      }

      .b,
      .c,
      .d,
      .e,
      .f,
      .g {
        stroke-linecap: round;
        stroke-linejoin: round;
        stroke-width: 2.284px;
      }

      .c {
        fill: #d6e9ff;
      }

      .d {
        stroke: #ffc5dd;
      }

      .e {
        fill: #fdec3c;
      }

      .f {
        stroke: #2c8bf6;
      }

      .g {
        stroke: #42cb63;
      }
    </style>
  </defs>
  <rect class="a" width="146.2" height="146.2" />
  <path class="b"
    d="M8.411,114.239,76.319,99.67a4.194,4.194,0,0,1,1.961.049l7.088,1.9a4.177,4.177,0,0,0,2.582-.136l6.942-2.668a4.179,4.179,0,0,1,2.582-.137l6.509,1.744a4.186,4.186,0,0,0,3.978-1.021l21.388-20.524a4.185,4.185,0,0,0,1.145-1.935l1.148-4.286a4.183,4.183,0,0,1,2.141-2.644l7.294-3.714" />
  <path class="c"
    d="M18.391,81.353a16.978,16.978,0,1,1,12,20.794A16.977,16.977,0,0,1,18.391,81.353Zm22.08-16.811A21.953,21.953,0,1,0,56,91.429,21.952,21.952,0,0,0,40.471,64.542Z" />
  <path class="d" d="M5.123,88.049a29.329,29.329,0,0,0,7.454,17.2" />
  <path class="c"
    d="M88.785,68.52a16.334,16.334,0,1,1,11.548,20.006A16.332,16.332,0,0,1,88.785,68.52ZM110.05,52.264a21.206,21.206,0,1,0,15,25.972A21.207,21.207,0,0,0,110.05,52.264Z" />
  <path class="b"
    d="M104.563,72.748l-3.272.67L80.6,43.908m1.031-18.277L80.274,30.68l-6.4,3.7,4.476,6.374m0,0L49.467,60.763,34.417,86.42,65.3,80.781M78.349,40.75,80.6,43.908M65.3,80.781,80.6,43.908M65.3,80.781,41.723,50.5m0,0L52.7,44.163M41.723,50.5c-1.828,1.056-5.764,2.475-6.877-.3s4.413-3.972,7.316-4.225" />
  <path class="b" d="M65.3,80.781,63.126,91.794l-2.551.862L66.951,90.5" />
  <circle class="e" cx="65.302" cy="80.781" r="5.227" />
  <path class="f" d="M65.887,108.39l-11.749,2.521M33,120.569l5.741-1.232M45.3,117.93l18.043-3.871" />
  <path class="g" d="M96.308,46.572A26.516,26.516,0,0,1,125.159,54.3" />
</svg>
