<svg xmlns="http://www.w3.org/2000/svg" viewBox="0 0 146.2 146.2">
  <defs>
    <style>
      .a,
      .c,
      .d,
      .f,
      .g {
        fill: none;
      }

      .a {
        opacity: 0.07;
      }

      .b {
        fill: #fff;
      }

      .c,
      .e {
        stroke: #003290;
      }

      .c,
      .d,
      .e,
      .f,
      .g {
        stroke-linecap: round;
        stroke-linejoin: round;
        stroke-width: 2.284px;
      }

      .d {
        stroke: #42cb63;
      }

      .e {
        fill: #d6e9ff;
      }

      .f {
        stroke: #fff;
      }

      .g {
        stroke: #2c8bf6;
      }

      .h {
        fill: #fdec3c;
      }
    </style>
  </defs>
  <rect class="a" width="146.2" height="146.2" />
  <path class="b"
    d="M15.238,56c3.972,3.117,9.678,6.155,15.776,5.714l77.328-5.592c6.1-.441,11.308-4.27,14.79-7.925,2.053-2.156,5.725-2.38,7.092.264a26.364,26.364,0,0,1,1.444,20.549,28.331,28.331,0,0,1-2.227,5.019c-3.955,6.989-10.791,12.117-18.885,12.7L33.227,92.323c-9.929.718-18.974-5.6-23.443-14.5A27.9,27.9,0,0,1,7.924,73.1a25.939,25.939,0,0,1,.333-15.82C9.231,54.467,12.894,54.162,15.238,56Z" />
  <path class="c"
    d="M9.784,77.824c4.469,8.894,13.514,15.217,23.443,14.5l77.329-5.593c8.094-.585,14.93-5.713,18.885-12.7a26.869,26.869,0,0,0,.783-25.568c-1.367-2.644-5.039-2.42-7.092-.264-3.482,3.655-8.692,7.484-14.79,7.925L31.014,61.713c-6.1.441-11.8-2.6-15.776-5.714-2.344-1.837-6.007-1.532-6.981,1.281A25.939,25.939,0,0,0,7.924,73.1m1.86,4.724,121.884-8.815M9.784,77.824A27.9,27.9,0,0,1,7.924,73.1m0,0,4.793-6.825,6.1,6.037L22.5,67.188l5.184,4.483" />
  <path class="c" d="M121.926,64.855l-3.454-2.989-2.99,3.455-4.376-4.542L107.427,65.9" />
  <path class="d" d="M134.74,77.507a32.734,32.734,0,0,0,2.149-29.119" />
  <path class="e"
    d="M110.557,86.73l-77.33,5.593c-9.932.719-18.974-5.6-23.443-14.5l121.884-8.815C129.365,78.082,118.65,86.145,110.557,86.73Z" />
  <path class="f" d="M42.476,81.049,76.3,78.541m6.443-.477,14.5-1.075m6.446-.478,12.887-.955" />
  <path class="g" d="M84.544,102.142c4,0,9.607-5.6,13.609-5.6s8.006,5.6,12.809,5.6c3.842,0,8-3.2,9.606-4.8" />
  <path class="g" d="M9.212,104.734c4,0,8.805-5.6,12.808-5.6a8.562,8.562,0,0,1,6.4,3.2" />
  <path class="h"
    d="M49.892,122.651l7.257-10.109A10.666,10.666,0,1,0,39.821,100.1l-7.258,10.108a10.667,10.667,0,0,0,17.329,12.443Z" />
  <path class="c"
    d="M30.688,114.771a10.607,10.607,0,0,1,1.875-4.563L39.821,100.1a10.666,10.666,0,1,1,17.328,12.442l-7.257,10.109a10.669,10.669,0,0,1-19.2-7.88Zm0,0L41.355,113.2m-10.236,6.636,5.8-.852" />
  <path class="c" d="M94.682,42.535,46.468,109.683" />
  <path class="h"
    d="M96.308,23.549,89.051,33.658A10.666,10.666,0,1,0,106.379,46.1l7.258-10.108A10.667,10.667,0,0,0,96.308,23.549Z" />
  <path class="c"
    d="M115.512,31.429a10.607,10.607,0,0,1-1.875,4.563L106.379,46.1A10.666,10.666,0,1,1,89.051,33.658l7.257-10.109a10.669,10.669,0,0,1,19.2,7.88Zm0,0L104.845,33m10.236-6.636-5.8.852" />
</svg>
