<svg xmlns="http://www.w3.org/2000/svg" viewBox="0 0 146.2 146.2">
  <defs>
    <style>
      .a,
      .d,
      .e,
      .f,
      .g,
      .h {
        fill: none;
      }

      .a {
        opacity: 0.07;
      }

      .b {
        fill: #d6e9ff;
      }

      .c {
        fill: #fff;
      }

      .d,
      .e {
        stroke: #003290;
      }

      .d,
      .e,
      .f,
      .g,
      .h {
        stroke-linecap: round;
        stroke-linejoin: round;
        stroke-width: 2.284px;
      }

      .d {
        stroke-dasharray: 4.569 4.569;
      }

      .f {
        stroke: #2c8bf6;
      }

      .g {
        stroke: #ffc5dd;
      }

      .h {
        stroke: #42cb63;
      }

      .i {
        fill: #003290;
      }

      .j {
        fill: #fdec3c;
      }
    </style>
  </defs>
  <rect class="a" width="146.2" height="146.2" />
  <path class="b"
    d="M55.787,103.382,34.5,116.788,24.74,106.547l-3.173-3.331a4.562,4.562,0,0,1-1.261-3.151V32.51a2.572,2.572,0,0,1,4.434-1.774L34.5,40.976,55.787,27.57,68.851,40.976l2.9,2.979L85.945,27.57l12.42,7.507,9.757,5.9,12.671-7.448a3.364,3.364,0,0,1,5.069,2.9v67.318a4.566,4.566,0,0,1-2.254,3.939l-2.815,1.654-12.671,7.448-9.757-5.9-12.42-7.507L71.752,119.767Z" />
  <polygon class="c"
    points="98.365 35.077 85.945 27.57 85.734 27.813 85.734 103.625 85.945 103.382 98.365 110.889 108.122 116.788 108.122 40.976 98.365 35.077" />
  <polygon class="c" points="68.851 40.976 56.09 27.881 56.09 103.693 71.752 119.767 71.752 43.955 68.851 40.976" />
  <path class="c"
    d="M24.74,30.736a2.571,2.571,0,0,0-4.434,1.774v67.555a4.562,4.562,0,0,0,1.261,3.151l3.173,3.331L34.5,116.788V40.976Z" />
  <path class="d"
    d="M98.365,110.889c1-3.681,4.361-11.445,9.757-13.054,8.114,0,10.483,9.277,17.74,4.058v2.114a4.785,4.785,0,0,1-2.671,3.924l-15.069,8.857ZM55.787,27.57,34.5,40.976,24.355,30.529a2.358,2.358,0,0,0-4.049,1.643V45.925c.345,6.388,3.669,18.781,14.193,17.248,4.457,1.646,14.955.885,21.288-15.332.61-3.938,4.075-10.823,13.064-6.865Z" />
  <path class="e"
    d="M34.5,116.788l21.288-13.406M34.5,116.788,24.74,106.547l-3.173-3.331a4.562,4.562,0,0,1-1.261-3.151V73.908M34.5,116.788v-39.2m21.288,25.8,15.965,16.385M55.787,103.382V63.172m15.965,56.6,14.193-16.385M71.752,119.767V70.742m14.193,32.64,12.42,7.507,9.757,5.9M85.945,103.382V88.072m22.177,28.716,12.671-7.448,2.815-1.654a4.566,4.566,0,0,0,2.254-3.939V68.455m-17.74,48.333V78.882M34.5,40.976,55.787,27.57M34.5,40.976,24.74,30.736h0a2.572,2.572,0,0,0-4.434,1.774v41.4M34.5,40.976V77.583M55.787,27.57v35.6m0-35.6L68.851,40.976l2.9,2.979m0,0L85.945,27.57M71.752,43.955V70.742M85.945,27.57l12.42,7.507,9.757,5.9M85.945,27.57v60.5m22.177-47.1,12.671-7.448h0a3.364,3.364,0,0,1,5.069,2.9V68.455m-17.74-27.479V78.882M20.306,73.908c1.654,2.45,6.812,6.614,14.193,3.675m0,0c2.588-1.734,6.033-7.206,11.506-6.841m0,0c6.839.456,8.208,12.313,4.1,14.594C46.825,87.16,46.005,76.367,46.005,70.742Zm0,0c.288-2.523,2.65-7.57,9.782-7.57m0,0c4.141,0,11.757-.456,15.965,7.57m0,0c1.933,5.473,7.475,16.6,14.193,17.33m0,0c4.941,0,13.558-2.335,15.241-10.835m0,0a18.242,18.242,0,0,0,0-6.495c-1-3.982-4.226-11.072-9.121-7.57S96.106,74.008,101.186,77.237Zm0,0c1.949,1.239,3.3,1.645,6.936,1.645m0,0c9.025,0,13.037-14.789,17.74-10.427" />
  <path class="f" d="M132.82,43.891V32.535a9.138,9.138,0,0,0-9.137-9.138h-3.127" />
  <path class="g" d="M13.38,95.762V67.394" />
  <path class="h" d="M102.838,121.063c4.2,2.854,8.582,2.039,12.356-1.3" />
  <path class="i"
    d="M65.231,99.664a1.142,1.142,0,0,1-.992-.576L60.529,92.6a1.142,1.142,0,1,1,1.982-1.134l3.71,6.486a1.143,1.143,0,0,1-.99,1.71Z" />
  <path class="i"
    d="M60.3,98.311a1.143,1.143,0,0,1-.611-2.109l6.061-3.827a1.142,1.142,0,0,1,1.22,1.932l-6.06,3.827A1.147,1.147,0,0,1,60.3,98.311Z" />
  <path class="j"
    d="M63.334,87.732a4.747,4.747,0,0,0-3.014,1.13A5.994,5.994,0,0,0,58.6,91.575a9.676,9.676,0,0,0-.5,3.207,17.047,17.047,0,0,0,.513,3.245,15.63,15.63,0,0,0,1.065,3.087,6.654,6.654,0,0,0,1.818,2.43,4.919,4.919,0,0,0,.59.362c.206.093.425.134.631.214l.663.054a2.914,2.914,0,0,0,.618-.109,4.552,4.552,0,0,0,2.137-1.791,14.024,14.024,0,0,0,2.113-5.915,17.886,17.886,0,0,0-.119-6.267,7.49,7.49,0,0,0-.444-1.438,6.055,6.055,0,0,0-.3-.667l-.358-.592a2.2,2.2,0,0,0-2.089-1,5.127,5.127,0,0,0-2.653,1.283A7.73,7.73,0,0,0,60.246,90.2l-.219-.065a7.291,7.291,0,0,1,1.519-3.191,5.958,5.958,0,0,1,3.1-2.133,3.648,3.648,0,0,1,2.154.083,4.784,4.784,0,0,1,.987.5c.283.217.533.465.8.707.217.26.405.536.6.81a8.2,8.2,0,0,1,.464.85,9.682,9.682,0,0,1,.694,1.759,15.541,15.541,0,0,1,.133,7.232,16.635,16.635,0,0,1-2.877,6.613,6.2,6.2,0,0,1-3.153,2.291,4.33,4.33,0,0,1-3.875-.955,7.989,7.989,0,0,1-2.091-3.055,16.842,16.842,0,0,1-.983-3.384,18.056,18.056,0,0,1-.31-3.493,10.452,10.452,0,0,1,.773-3.439,6.55,6.55,0,0,1,2.073-2.828,5.093,5.093,0,0,1,3.3-1Z" />
</svg>
