<svg xmlns="http://www.w3.org/2000/svg" viewBox="0 0 146.2 146.2">
  <defs>
    <style>
      .a,
      .c,
      .f,
      .i,
      .j {
        fill: none;
      }

      .a {
        opacity: 0.07;
      }

      .b {
        fill: #003290;
      }

      .b,
      .e,
      .g,
      .i {
        stroke: #003290;
      }

      .b,
      .c,
      .f,
      .g,
      .i,
      .j {
        stroke-linecap: round;
        stroke-linejoin: round;
      }

      .b,
      .c,
      .e,
      .f,
      .g,
      .i,
      .j {
        stroke-width: 2.284px;
      }

      .c {
        stroke: #ffc5dd;
      }

      .d,
      .e {
        fill: #d6e9ff;
      }

      .f {
        stroke: #2c8bf6;
      }

      .g {
        fill: #fff;
      }

      .h {
        fill: #fdec3c;
        fill-rule: evenodd;
      }

      .j {
        stroke: #42cb63;
      }
    </style>
  </defs>
  <rect class="a" width="146.2" height="146.2" />
  <path class="b" d="M129.77,60.937c-6.4-17.932-26.15-20.814-35.223-20.013l2.4,8.805h6.4l8.005,7.2,5.6-5.6,4,7.2Z" />
  <path class="b"
    d="M38.511,47.328c19.853-20.493,40.827-9.073,48.832-.8l-2.4,3.2-14.409,2.4V42.525l-11.207,5.6-2.4-7.2-8.806,6.4Z" />
  <path class="b"
    d="M132.972,22.511c-39.066-10.887-48.3,14.142-48.031,28.018l18.412-12.007-4.8-6.4h13.609v-5.6h13.609Z" />
  <path class="c" d="M123.566,14.329c-16.672-2.388-27.558,1.676-34.422,8.174" />
  <path class="d"
    d="M90.463,61.623c10.578,10.875,5.326,40.71,1.276,54.55a166.232,166.232,0,0,1,16.417,3.222,75.154,75.154,0,0,0,1.792-16.831,76.663,76.663,0,0,0-.47-8.006c-1.883-16.98-9-30.3-13.813-36.427a3.21,3.21,0,0,0-.743-.681l-.814-.542a2.969,2.969,0,0,0-4.559,3.053A3.342,3.342,0,0,0,90.463,61.623Z" />
  <path class="e"
    d="M129.77,126.58a146.76,146.76,0,0,0-21.614-7.185m-41.065-5.414c8.273,0,13.27.537,24.648,2.192m0,0c4.05-13.84,9.3-43.675-1.276-54.55a3.342,3.342,0,0,1-.914-1.662h0a2.969,2.969,0,0,1,4.559-3.053l.814.542a3.21,3.21,0,0,1,.743.681c4.817,6.129,11.93,19.447,13.813,36.427M91.739,116.173a166.232,166.232,0,0,1,16.417,3.222m0,0a75.137,75.137,0,0,0,1.419-8.826m-.1-16.011h-4.524m4.524,0a76.663,76.663,0,0,1,.47,8.006m0,0h-7.395m7.395,0a75.4,75.4,0,0,1-.373,8.005m0,0H99.351" />
  <path class="f" d="M55.322,92.823c4,0,9.606-5.6,13.609-5.6s8.005,5.6,12.808,5.6c3.843,0,8-3.2,9.606-4.8" />
  <path class="f"
    d="M64.128,100.668c1.991-1.135,3.936-2.107,5.6-2.107,4,0,8.006,5.6,12.809,5.6,3.274,0,6.78-2.324,8.736-4" />
  <path class="f" d="M122.954,102.564a7.123,7.123,0,0,1,12.807,0" />
  <path class="f" d="M118.551,92.958c4,0,8.806-5.6,12.808-5.6a8.567,8.567,0,0,1,6.4,3.2" />
  <circle class="g" cx="84.941" cy="56.934" r="6.404" />
  <circle class="g" cx="100.952" cy="55.333" r="6.404" />
  <path class="b"
    d="M56.121,85.752C47.8,55.012,72.933,44.926,88.142,45.726l-2.4,5.6-16.012,4.8,3.2,6.4-12.007,4,7.2,4Z" />
  <circle class="g" cx="92.146" cy="51.33" r="7.205" />
  <path class="h"
    d="M53.566,105.074A38.989,38.989,0,0,0,67.091,107.6L56.828,110.72l-14.7,4.463a25.048,25.048,0,0,1-11.01-1.787L23.413,99.977,15.381,86a53.809,53.809,0,0,1-.06-8.8L33.4,75.436C34.062,92.879,43.811,101.358,53.566,105.074Z" />
  <path class="i"
    d="M33.4,70.165l2.884,4.991m29.563,51.166-2.163-3.744M8.437,73.908l2.151,3.744m31.544,54.91-2.5-4.345M10.588,77.652l4.733-.46m-4.733.46L15.381,86m20.9-10.84-2.884.28m2.884-.28,17.286,29.918m-13.93,23.143,24.044-5.639m-24.044,5.639-7.488-13.034m31.532,7.395L56.828,110.72M23.413,99.977,15.381,86m8.032,13.981-1.524,5.86m1.524-5.86L31.122,113.4m-20.534,5.438,21.56-3.651m0,0-13.273,2.248,3.014-11.594m10.259,9.346L31.122,113.4M33.4,75.436,15.321,77.192M33.4,75.436c.666,17.443,10.415,25.922,20.17,29.638M15.321,77.192a53.809,53.809,0,0,0,.06,8.8m38.185,19.078A38.989,38.989,0,0,0,67.091,107.6L56.828,110.72m-3.262-5.646,3.262,5.646m0,0-14.7,4.463a25.048,25.048,0,0,1-11.01-1.787m-9.233-7.559C17.805,100.115,15.961,92.646,15.381,86m6.508,19.841a21.657,21.657,0,0,0,9.233,7.559" />
  <path class="j" d="M48.294,72.584a20.751,20.751,0,0,1,4.047-14.049" />
</svg>
